<svg xmlns="http://www.w3.org/2000/svg" width="20.2" height="22.2" viewBox="0 0 20.2 22.2"><defs><style>.a{stroke:#000;stroke-width:0.2px;}</style></defs><g transform="translate(-1.9 -2.9)"><g transform="translate(2 3)"><path class="a" d="M15.286,14.579H2.588a.579.579,0,1,1,0-1.158h12.7l-3.7-3.643a.573.573,0,0,1,0-.819.6.6,0,0,1,.832,0l4.706,4.632a.573.573,0,0,1,0,.819l-4.706,4.632a.6.6,0,0,1-.832,0,.573.573,0,0,1,0-.819ZM7.882,4.158v6.368a.588.588,0,0,1-1.176,0V3.579A.584.584,0,0,1,7.294,3H21.412A.584.584,0,0,1,22,3.579V24.421a.584.584,0,0,1-.588.579H7.294a.584.584,0,0,1-.588-.579V17.474a.588.588,0,0,1,1.176,0v6.368H20.824V4.158Z" transform="translate(-2 -3)"/></g></g></svg>