<svg id="SvgjsSvg1054" width="288" height="288" xmlns="http://www.w3.org/2000/svg" version="1.1" xmlns:xlink="http://www.w3.org/1999/xlink" xmlns:svgjs="http://svgjs.com/svgjs"><defs id="SvgjsDefs1055"></defs><g id="SvgjsG1056"><svg xmlns="http://www.w3.org/2000/svg" viewBox="0 0 12.75 16" width="288" height="288"><g data-name="Layer 2" fill="#ffffff" class="color000 svgShape"><g data-name="Layer 1" fill="#ffffff" class="color000 svgShape"><rect width="12.74" height="16" x=".01" fill="none"></rect><path d="M12.74,9.64h0a5.34,5.34,0,0,0-.14-1.32H6.5v2.41h3.58a3.11,3.11,0,0,1-1.33,2.1h0a4,4,0,0,1-5.94-2.06h0A4,4,0,0,1,2.59,9.5,4.05,4.05,0,0,1,2.8,8.21h0a3.94,3.94,0,0,1,3.7-2.7h0A3.64,3.64,0,0,1,9,6.48l1.84-1.79A6.28,6.28,0,0,0,6.5,3,6.5,6.5,0,0,0,.7,6.58h0a6.52,6.52,0,0,0,0,5.84h0A6.5,6.5,0,0,0,6.5,16h0a6.2,6.2,0,0,0,4.3-1.58h0A6.33,6.33,0,0,0,12.74,9.64ZM2.8,10.78Z" fill="#ffffff" class="color000 svgShape"></path></g></g></svg></g></svg>