<svg id="SvgjsSvg1025" width="288" height="288" xmlns="http://www.w3.org/2000/svg" version="1.1" xmlns:xlink="http://www.w3.org/1999/xlink" xmlns:svgjs="http://svgjs.com/svgjs"><defs id="SvgjsDefs1026"></defs><g id="SvgjsG1027"><svg xmlns="http://www.w3.org/2000/svg" viewBox="0 0 12.75 13" width="288" height="288"><g data-name="Layer 2" fill="#ffffff" class="color000 svgShape"><path d="M12.74,6.64h0a5.34,5.34,0,0,0-.14-1.32H6.5V7.73h3.58a3.11,3.11,0,0,1-1.33,2.1h0A4,4,0,0,1,2.81,7.78h0A4,4,0,0,1,2.59,6.5,4.05,4.05,0,0,1,2.8,5.21h0a3.94,3.94,0,0,1,3.7-2.7h0A3.64,3.64,0,0,1,9,3.48l1.84-1.79A6.28,6.28,0,0,0,6.5,0,6.5,6.5,0,0,0,.7,3.58h0a6.52,6.52,0,0,0,0,5.84h0A6.5,6.5,0,0,0,6.5,13h0a6.2,6.2,0,0,0,4.3-1.58h0A6.33,6.33,0,0,0,12.74,6.64ZM2.8,7.78Z" data-name="Layer 1" fill="#ffffff" class="color000 svgShape"></path></g></svg></g></svg>