<svg id="Exclusion_4" data-name="Exclusion 4" xmlns="http://www.w3.org/2000/svg" width="1920" height="4494.001" viewBox="0 0 1920 4494.001">
  <path id="Path_60" data-name="Path 60" d="M1919.5,4493.5H.5V.5h1919ZM587.649,1786.414,408.3,2455.736l-.129.483.483.129,926.323,248.207.483.129.129-.483,179.362-669.386.13-.483-.483-.129L588.279,1786l-.629-.169Z" fill="#fff"/>
  <path id="Path_61" data-name="Path 61" d="M1919,4493V1H1V4493H1919M587.149,1786.346v-1.172l1.259.337L1514.73,2033.72l.966.259-.259.966-179.362,669.386-.259.966-.966-.259L408.527,2456.832l-.966-.259.259-.966,179.329-669.26M1920,4494H0V0H1920V4494ZM588.149,1786.478h0L408.786,2455.865l926.323,248.207,179.362-669.386Z" fill="#fff"/>
</svg>
