<svg id="SvgjsSvg1026" width="288" height="288" xmlns="http://www.w3.org/2000/svg" version="1.1" xmlns:xlink="http://www.w3.org/1999/xlink" xmlns:svgjs="http://svgjs.com/svgjs"><defs id="SvgjsDefs1027"></defs><g id="SvgjsG1028"><svg xmlns="http://www.w3.org/2000/svg" viewBox="0 0 294.52 150" width="288" height="288"><g data-name="Layer 2" fill="#ffffff" class="color000 svgShape"><g data-name="Layer 1" fill="#ffffff" class="color000 svgShape"><path d="M116.9 147v-21.3C111.91 137.11 94 150 69.82 150 33.69 150 0 123.61 0 74.9S35.72 0 71.24 0C102.5 0 126.66 17.46 135 43.44l-18.07 7.71c-6.49-20.7-23.34-32.88-45.67-32.88C45.47 18.27 20.3 36.74 20.3 74.9s24.35 57 50.13 57c32.07 0 43.64-22.74 44.45-37.56H65V76.52h68.81V147zM162.18 147V2.91h19.08V147zM277.46 134.16c-5.28 10.15-16 15.84-29.83 15.84C224.9 150 211.1 133 211.1 110.83V49.32h19.08V108c0 13.4 6.09 25.17 22.12 25.17 15.43 0 23.14-10.15 23.14-25V49.32h19.08V147H277.46z" fill="#ffffff" class="color000 svgShape"></path></g></g></svg></g></svg>