<svg xmlns="http://www.w3.org/2000/svg" width="1920" height="4494.001" viewBox="0 0 1920 4494.001">
  <defs>
    <style>
      .cls-1 {
        fill: #fff;
      }

      .cls-2, .cls-3 {
        stroke: none;
      }

      .cls-3 {
        fill: #707070;
      }
    </style>
  </defs>
  <g id="Exclusion_4" data-name="Exclusion 4" class="cls-1">
    <path class="cls-2" d="M 1919.500244140625 4493.5 L 0.500244140625 4493.5 L 0.500244140625 0.499932736158371 L 1919.500244140625 0.499932736158371 L 1919.500244140625 4493.5 Z M 587.6491088867188 1786.413696289062 L 408.3035888671875 2455.736083984375 L 408.1741333007812 2456.21875 L 408.6569213867188 2456.34814453125 L 1334.980224609375 2704.555419921875 L 1335.463012695312 2704.684814453125 L 1335.592407226562 2704.2021484375 L 1514.9541015625 2034.816040039062 L 1515.083618164062 2034.333251953125 L 1514.600830078125 2034.203857421875 L 588.278564453125 1785.995483398438 L 587.6491088867188 1785.82666015625 L 587.6491088867188 1786.413696289062 Z"/>
    <path class="cls-3" d="M 1919.000244140625 4493 L 1919.000244140625 0.9999327063560486 L 1.000244140625 0.9999327063560486 L 1.000244140625 4493 L 1919.000244140625 4493 M 587.1491088867188 1786.346435546875 L 587.1491088867188 1785.174926757812 L 588.4080200195312 1785.51220703125 L 1514.730224609375 2033.720458984375 L 1515.696411132812 2033.979370117188 L 1515.4375 2034.945434570312 L 1336.075805664062 2704.33154296875 L 1335.81689453125 2705.297607421875 L 1334.850830078125 2705.038818359375 L 408.5274658203125 2456.83154296875 L 407.5613403320312 2456.57275390625 L 407.8202514648438 2455.606689453125 L 587.1491088867188 1786.346435546875 M 1920.000244140625 4494.0009765625 L 1920.000244140625 4494 L 0.000244140625 4494 L 0.000244140625 -6.727430445607752e-05 L 1920.000244140625 -6.727430445607752e-05 L 1920.000244140625 4494 L 1920.000244140625 4494.0009765625 Z M 588.1491088867188 1786.478271484375 L 588.1491088867188 1786.478881835938 L 408.7863464355469 2455.865478515625 L 1335.109741210938 2704.07275390625 L 1514.471313476562 2034.686645507812 L 588.1491088867188 1786.478271484375 Z"/>
  </g>
</svg>
