<svg xmlns="http://www.w3.org/2000/svg" width="1920" height="1920.001" viewBox="0 0 1920 1920.001">
  <defs>
    <style>
      .cls-1 {
        fill: #fff;
      }

      .cls-2, .cls-3 {
        stroke: none;
      }

      .cls-3 {
        fill: #707070;
      }
    </style>
  </defs>
  <g id="Exclusion_2" data-name="Exclusion 2" class="cls-1" transform="translate(0 0)">
    <path class="cls-2" d="M 1919.500122070312 1919.500122070312 L 0.5003601908683777 1919.500122070312 L 0.5003601908683777 0.5003722310066223 L 1919.500122070312 0.5003722310066223 L 1919.500122070312 1919.500122070312 Z M 587.7946166992188 500.1082153320312 L 587.6653442382812 500.5910949707031 L 408.3044128417969 1169.97705078125 L 408.1748962402344 1170.460083007812 L 408.6577453613281 1170.589477539062 L 1334.979614257812 1418.796752929688 L 1335.462768554688 1418.92626953125 L 1335.592041015625 1418.443481445312 L 1514.95458984375 749.0572509765625 L 1515.084228515625 748.5741577148438 L 1514.601318359375 748.4448852539062 L 588.2777709960938 500.2377624511719 L 587.7946166992188 500.1082153320312 Z"/>
    <path class="cls-3" d="M 1919.000122070312 1919.000122070312 L 1919.000122070312 1.000372290611267 L 1.000360131263733 1.000372290611267 L 1.000360131263733 1919.000122070312 L 1919.000122070312 1919.000122070312 M 587.4411010742188 499.495849609375 L 588.4070434570312 499.7546691894531 L 1514.730590820312 747.9617919921875 L 1515.696533203125 748.2205810546875 L 1515.437744140625 749.1865844726562 L 1336.075073242188 1418.57275390625 L 1335.816284179688 1419.538696289062 L 1334.850341796875 1419.279907226562 L 408.5284423828125 1171.072509765625 L 407.5625 1170.813720703125 L 407.8213195800781 1169.847778320312 L 587.1822509765625 500.4617919921875 L 587.4411010742188 499.495849609375 M 1920.000122070312 1920.001098632812 L 1920.000122070312 1920.000122070312 L 0.0003601655480451882 1920.000122070312 L 0.0003601655480451882 0.0003722563269548118 L 1920.000122070312 0.0003722563269548118 L 1920.000122070312 1920.000122070312 L 1920.000122070312 1920.001098632812 Z M 588.148193359375 500.7206115722656 L 408.7872619628906 1170.106567382812 L 1335.109130859375 1418.31396484375 L 1514.471801757812 748.927734375 L 588.148193359375 500.7206115722656 Z"/>
  </g>
</svg>
